<?xml version="1.0" encoding="utf-8"?>
<!-- Generator: Adobe Illustrator 23.0.5, SVG Export Plug-In . SVG Version: 6.00 Build 0)  -->
<svg version="1.1" id="Layer_1" xmlns="http://www.w3.org/2000/svg" xmlns:xlink="http://www.w3.org/1999/xlink" x="0px" y="0px"
	 viewBox="0 0 454.2 417.5" style="enable-background:new 0 0 454.2 417.5;" xml:space="preserve">
<style type="text/css">
	.st0{fill:#ED1C24;}
	.st1{fill:url(#SVGID_1_);}
	.st2{fill:url(#SVGID_2_);}
	.st3{fill:url(#SVGID_3_);}
	.st4{fill:url(#SVGID_4_);}
	.st5{fill:url(#SVGID_5_);}
	.st6{fill:url(#SVGID_6_);}
	.st7{fill:url(#SVGID_7_);}
</style>
<circle class="st0" cx="310.5" cy="24.6" r="5.8"/>
<circle class="st0" cx="428.5" cy="136.3" r="5.8"/>
<circle class="st0" cx="340.1" cy="24.6" r="5.8"/>
<circle class="st0" cx="362.2" cy="24.6" r="5.8"/>
<circle class="st0" cx="384.3" cy="24.6" r="5.8"/>
<circle class="st0" cx="406.4" cy="24.6" r="5.8"/>
<circle class="st0" cx="329.1" cy="40.2" r="5.8"/>
<circle class="st0" cx="351.2" cy="40.2" r="5.8"/>
<circle class="st0" cx="373.3" cy="40.2" r="5.8"/>
<circle class="st0" cx="395.4" cy="40.2" r="5.8"/>
<circle class="st0" cx="406.4" cy="55.8" r="5.8"/>
<circle class="st0" cx="412.7" cy="146.8" r="5.8"/>
<circle class="st0" cx="412.6" cy="124.7" r="5.8"/>
<circle class="st0" cx="412.4" cy="102.7" r="5.8"/>
<circle class="st0" cx="412.2" cy="80.6" r="5.8"/>
<linearGradient id="SVGID_1_" gradientUnits="userSpaceOnUse" x1="334.9419" y1="55.8137" x2="346.6185" y2="55.8137">
	<stop  offset="0" style="stop-color:#FBB040"/>
	<stop  offset="1" style="stop-color:#F9ED32"/>
</linearGradient>
<circle class="st1" cx="340.8" cy="55.8" r="5.8"/>
<linearGradient id="SVGID_2_" gradientUnits="userSpaceOnUse" x1="355.921" y1="94.3603" x2="367.5976" y2="94.3603" gradientTransform="matrix(0.5701 -0.8216 0.8216 0.5701 79.1013 299.2303)">
	<stop  offset="0" style="stop-color:#FBB040"/>
	<stop  offset="1" style="stop-color:#F9ED32"/>
</linearGradient>
<circle class="st2" cx="362.9" cy="55.8" r="5.8"/>
<linearGradient id="SVGID_3_" gradientUnits="userSpaceOnUse" x1="368.3311" y1="112.2446" x2="380.0078" y2="112.2446" gradientTransform="matrix(0.5701 -0.8216 0.8216 0.5701 79.1013 299.2303)">
	<stop  offset="0" style="stop-color:#FBB040"/>
	<stop  offset="1" style="stop-color:#F9ED32"/>
</linearGradient>
<circle class="st3" cx="384.6" cy="55.8" r="5.8"/>
<linearGradient id="SVGID_4_" gradientUnits="userSpaceOnUse" x1="360.1989" y1="131.2477" x2="371.8755" y2="131.2477" gradientTransform="matrix(0.5701 -0.8216 0.8216 0.5701 79.1013 299.2303)">
	<stop  offset="0" style="stop-color:#FBB040"/>
	<stop  offset="1" style="stop-color:#F9ED32"/>
</linearGradient>
<circle class="st4" cx="395.6" cy="73.3" r="5.8"/>
<linearGradient id="SVGID_5_" gradientUnits="userSpaceOnUse" x1="343.6151" y1="142.7555" x2="355.2917" y2="142.7555" gradientTransform="matrix(0.5701 -0.8216 0.8216 0.5701 79.1013 299.2303)">
	<stop  offset="0" style="stop-color:#FBB040"/>
	<stop  offset="1" style="stop-color:#F9ED32"/>
</linearGradient>
<circle class="st5" cx="395.6" cy="93.5" r="5.8"/>
<linearGradient id="SVGID_6_" gradientUnits="userSpaceOnUse" x1="389.5205" y1="115.5986" x2="401.1971" y2="115.5986">
	<stop  offset="0" style="stop-color:#FBB040"/>
	<stop  offset="1" style="stop-color:#F9ED32"/>
</linearGradient>
<circle class="st6" cx="395.4" cy="115.6" r="5.8"/>
<linearGradient id="SVGID_7_" gradientUnits="userSpaceOnUse" x1="389.5205" y1="137.6825" x2="401.1971" y2="137.6825">
	<stop  offset="0" style="stop-color:#FBB040"/>
	<stop  offset="1" style="stop-color:#F9ED32"/>
</linearGradient>
<circle class="st7" cx="395.4" cy="137.7" r="5.8"/>
<circle class="st0" cx="428.5" cy="24.6" r="5.8"/>
<circle class="st0" cx="428.5" cy="46" r="5.8"/>
<circle class="st0" cx="428.5" cy="67.5" r="5.8"/>
<circle class="st0" cx="428.5" cy="90.6" r="5.8"/>
<circle class="st0" cx="428.5" cy="113.7" r="5.8"/>
</svg>
