<?xml version="1.0" encoding="utf-8"?>
<!-- Generator: Adobe Illustrator 23.0.5, SVG Export Plug-In . SVG Version: 6.00 Build 0)  -->
<svg version="1.1" xmlns="http://www.w3.org/2000/svg" xmlns:xlink="http://www.w3.org/1999/xlink" x="0px" y="0px"
	 viewBox="0 0 595.3 393.2" style="enable-background:new 0 0 595.3 393.2;" xml:space="preserve">
<style type="text/css">
	.st0{fill:#ED1C24;}
	.st1{fill:url(#SVGID_1_);}
	.st2{fill:url(#SVGID_2_);}
	.st3{fill:url(#SVGID_3_);}
	.st4{fill:url(#SVGID_4_);}
	.st5{fill:#808285;}
	.st6{font-family:'Rockwell';}
	.st7{font-size:120px;}
</style>
<g id="Layer_2">
</g>
<g id="Layer_1">
	<circle class="st0" cx="39.9" cy="370.3" r="4"/>
	<circle class="st0" cx="54.3" cy="370.3" r="4"/>
	<circle class="st0" cx="68.7" cy="370.3" r="4"/>
	<circle class="st0" cx="83.1" cy="370.3" r="4"/>
	<circle class="st0" cx="25.6" cy="370.3" r="4"/>
	<circle class="st0" cx="25.6" cy="355.9" r="4"/>
	<circle class="st0" cx="25.6" cy="341.5" r="4"/>
	<circle class="st0" cx="25.6" cy="327.1" r="4"/>
	<linearGradient id="SVGID_1_" gradientUnits="userSpaceOnUse" x1="35.9413" y1="341.52" x2="43.8613" y2="341.52">
		<stop  offset="0" style="stop-color:#FFF200"/>
		<stop  offset="1" style="stop-color:#F9ED32"/>
	</linearGradient>
	<circle class="st1" cx="39.9" cy="341.5" r="4"/>
	<linearGradient id="SVGID_2_" gradientUnits="userSpaceOnUse" x1="36.0008" y1="355.92" x2="43.9208" y2="355.92">
		<stop  offset="0" style="stop-color:#FFF200"/>
		<stop  offset="1" style="stop-color:#F9ED32"/>
	</linearGradient>
	<circle class="st2" cx="40" cy="355.9" r="4"/>
	<linearGradient id="SVGID_3_" gradientUnits="userSpaceOnUse" x1="50.3413" y1="355.92" x2="58.2613" y2="355.92">
		<stop  offset="0" style="stop-color:#FFF200"/>
		<stop  offset="1" style="stop-color:#F9ED32"/>
	</linearGradient>
	<circle class="st3" cx="54.3" cy="355.9" r="4"/>
	<linearGradient id="SVGID_4_" gradientUnits="userSpaceOnUse" x1="64.7413" y1="355.92" x2="72.6613" y2="355.92">
		<stop  offset="0" style="stop-color:#FFF200"/>
		<stop  offset="1" style="stop-color:#F9ED32"/>
	</linearGradient>
	<circle class="st4" cx="68.7" cy="355.9" r="4"/>
	<text transform="matrix(1 0 0 1 21.6586 144.5998)" class="st5 st6 st7">“</text>
</g>
</svg>
