<?xml version="1.0" encoding="utf-8"?>
<!-- Generator: Adobe Illustrator 23.0.5, SVG Export Plug-In . SVG Version: 6.00 Build 0)  -->
<svg version="1.1" xmlns="http://www.w3.org/2000/svg" xmlns:xlink="http://www.w3.org/1999/xlink" x="0px" y="0px"
	 viewBox="0 0 409 301" style="enable-background:new 0 0 409 301;" xml:space="preserve">
<style type="text/css">
	.st0{fill:#CFE2E1;}
	.st1{fill:none;stroke:#006837;stroke-width:2;stroke-miterlimit:10;}
	.st2{fill:#006837;}
	.st3{fill:#FDFFFF;}
	.st4{fill:#FDFFFF;stroke:#009245;stroke-width:4;stroke-miterlimit:10;}
	.st5{fill:#009245;}
	.st6{fill:#666666;}
	.st7{fill:url(#SVGID_1_);}
	.st8{fill:#E6E6E6;}
	.st9{fill:url(#SVGID_2_);}
	.st10{fill:#F2F2F2;}
	.st11{fill:url(#SVGID_3_);}
	.st12{fill:url(#SVGID_4_);}
	.st13{fill:url(#SVGID_5_);}
	.st14{fill:url(#SVGID_6_);}
	.st15{fill:url(#SVGID_7_);}
	.st16{fill:url(#SVGID_8_);}
	.st17{fill:url(#SVGID_9_);}
	.st18{fill:url(#SVGID_10_);}
	.st19{fill:url(#SVGID_11_);}
	.st20{fill:url(#SVGID_12_);}
	.st21{fill:#22B573;stroke:#22B573;stroke-miterlimit:10;}
	.st22{fill:url(#SVGID_13_);}
	.st23{fill:none;stroke:#000000;stroke-width:0.5;stroke-miterlimit:10;}
	.st24{fill:url(#SVGID_14_);}
	.st25{fill:url(#SVGID_15_);}
	.st26{fill:url(#SVGID_16_);}
	.st27{fill:none;stroke:#808080;stroke-width:2;stroke-miterlimit:10;}
</style>
<g id="Layer_3">
	<rect x="7" y="7" class="st0" width="396" height="288"/>
</g>
<g id="Layer_1">
	<line class="st1" x1="328.6" y1="131.8" x2="355.8" y2="131.8"/>
	<line class="st1" x1="311" y1="122" x2="321.8" y2="130.7"/>
	<line class="st1" x1="211.8" y1="92.8" x2="253.5" y2="93.1"/>
	<line class="st1" x1="253.2" y1="92.8" x2="253.2" y2="102.6"/>
	<line class="st1" x1="253.2" y1="109.1" x2="262.8" y2="117.7"/>
	<line class="st1" x1="267.4" y1="119.9" x2="288.4" y2="119.9"/>
	<line class="st1" x1="326.4" y1="118.2" x2="353.6" y2="118.2"/>
	<line class="st1" x1="312.2" y1="93.9" x2="333.2" y2="93.9"/>
	<line class="st1" x1="274.8" y1="80.4" x2="289.5" y2="92.3"/>
	<line class="st1" x1="255.5" y1="78.2" x2="243" y2="78.2"/>
	<g>
		<path class="st2" d="M191.3,182H26.7c-3.1,0-5.7-2.6-5.7-5.7V58.7c0-3.1,2.6-5.7,5.7-5.7h164.6c3.1,0,5.7,2.6,5.7,5.7v117.6
			C197,179.4,194.4,182,191.3,182z"/>
	</g>
	<g>
		<rect x="27" y="60" class="st3" width="164" height="115"/>
	</g>
	<ellipse class="st4" cx="208.4" cy="92.8" rx="3.4" ry="3.2"/>
	<ellipse class="st4" cx="271.3" cy="78.2" rx="3.4" ry="3.2"/>
	<ellipse class="st4" cx="336.6" cy="93.9" rx="3.4" ry="3.2"/>
	<ellipse class="st4" cx="240.2" cy="78.2" rx="3.4" ry="3.2"/>
	<ellipse class="st4" cx="253.2" cy="105.8" rx="3.4" ry="3.2"/>
	<ellipse class="st4" cx="264.5" cy="119.9" rx="3.4" ry="3.2"/>
	<ellipse class="st4" cx="324.1" cy="131.8" rx="3.4" ry="3.2"/>
	<ellipse class="st4" cx="323.5" cy="118.2" rx="3.4" ry="3.2"/>
	<ellipse class="st4" cx="359.2" cy="131.8" rx="3.4" ry="3.2"/>
	<ellipse class="st4" cx="359.2" cy="118.2" rx="3.4" ry="3.2"/>
	<ellipse class="st5" cx="291.8" cy="93.9" rx="3.4" ry="3.2"/>
	<ellipse class="st5" cx="308.8" cy="93.9" rx="3.4" ry="3.2"/>
	<ellipse class="st5" cx="308.8" cy="106.9" rx="3.4" ry="3.2"/>
	<ellipse class="st5" cx="308.8" cy="119.9" rx="3.4" ry="3.2"/>
	<ellipse class="st5" cx="208.4" cy="105.8" rx="3.4" ry="3.2"/>
	<ellipse class="st5" cx="291.8" cy="106.9" rx="3.4" ry="3.2"/>
	<ellipse class="st5" cx="291.8" cy="119.9" rx="3.4" ry="3.2"/>
	<line class="st1" x1="311.6" y1="108.5" x2="320.1" y2="115.5"/>
	<line class="st1" x1="255.5" y1="78.2" x2="289.5" y2="105.8"/>
	<path class="st6" d="M141,201.1H80c-4.4,0-8-3.6-8-8v0c0-4.4,3.6-8,8-8H141c4.4,0,8,3.6,8,8v0C149,197.5,145.4,201.1,141,201.1z"/>
</g>
<g id="Layer_2">
	<linearGradient id="SVGID_1_" gradientUnits="userSpaceOnUse" x1="34" y1="79" x2="55" y2="79">
		<stop  offset="0" style="stop-color:#ED1C24;stop-opacity:0.9"/>
		<stop  offset="1" style="stop-color:#F7931E"/>
	</linearGradient>
	<path class="st7" d="M52.4,82H36.6c-1.4,0-2.6-1.2-2.6-2.6v-0.8c0-1.4,1.2-2.6,2.6-2.6h15.8c1.4,0,2.6,1.2,2.6,2.6v0.8
		C55,80.8,53.8,82,52.4,82z"/>
	<path class="st8" d="M77.4,93H61.6c-1.4,0-2.6-1.2-2.6-2.6V78.6c0-1.4,1.2-2.6,2.6-2.6h15.8c1.4,0,2.6,1.2,2.6,2.6v11.8
		C80,91.8,78.8,93,77.4,93z"/>
	<linearGradient id="SVGID_2_" gradientUnits="userSpaceOnUse" x1="151" y1="110.5" x2="184" y2="110.5">
		<stop  offset="0" style="stop-color:#2E3192;stop-opacity:0.9"/>
		<stop  offset="1" style="stop-color:#0071BC"/>
	</linearGradient>
	<path class="st9" d="M181.4,124h-27.8c-1.4,0-2.6-1.2-2.6-2.6V99.6c0-1.4,1.2-2.6,2.6-2.6h27.8c1.4,0,2.6,1.2,2.6,2.6v21.8
		C184,122.8,182.8,124,181.4,124z"/>
	<path class="st8" d="M181.4,93h-27.8c-1.4,0-2.6-1.2-2.6-2.6V78.6c0-1.4,1.2-2.6,2.6-2.6h27.8c1.4,0,2.6,1.2,2.6,2.6v11.8
		C184,91.8,182.8,93,181.4,93z"/>
	<path class="st10" d="M52.4,93H36.6c-1.4,0-2.6-1.2-2.6-2.6v-0.8c0-1.4,1.2-2.6,2.6-2.6h15.8c1.4,0,2.6,1.2,2.6,2.6v0.8
		C55,91.8,53.8,93,52.4,93z"/>
	<linearGradient id="SVGID_3_" gradientUnits="userSpaceOnUse" x1="138" y1="131" x2="184" y2="131">
		<stop  offset="0" style="stop-color:#CCCCCC"/>
		<stop  offset="1" style="stop-color:#E6E6E6"/>
	</linearGradient>
	<path class="st11" d="M181.4,134h-40.8c-1.4,0-2.6-1.2-2.6-2.6v-0.8c0-1.4,1.2-2.6,2.6-2.6h40.8c1.4,0,2.6,1.2,2.6,2.6v0.8
		C184,132.8,182.8,134,181.4,134z"/>
	<linearGradient id="SVGID_4_" gradientUnits="userSpaceOnUse" x1="138" y1="141" x2="184" y2="141">
		<stop  offset="0" style="stop-color:#CCCCCC"/>
		<stop  offset="1" style="stop-color:#E6E6E6"/>
	</linearGradient>
	<path class="st12" d="M181.4,144h-40.8c-1.4,0-2.6-1.2-2.6-2.6v-0.8c0-1.4,1.2-2.6,2.6-2.6h40.8c1.4,0,2.6,1.2,2.6,2.6v0.8
		C184,142.8,182.8,144,181.4,144z"/>
	<path class="st10" d="M147,78.6v42.8c0,1.4-1.2,2.6-2.6,2.6h-40.8c-1.3,0-2.3-0.9-2.6-2.1c0-0.2,0-0.4,0-0.5V78.6
		c0-1.4,1.2-2.6,2.6-2.6h40.8C145.8,76,147,77.2,147,78.6z"/>
	<g>
		<radialGradient id="SVGID_5_" cx="68" cy="148" r="27.8298" gradientUnits="userSpaceOnUse">
			<stop  offset="0" style="stop-color:#FCEE21"/>
			<stop  offset="1" style="stop-color:#FBB03B"/>
		</radialGradient>
		<path class="st13" d="M99.9,166H36.1c-1.7,0-3.1-1.4-3.1-3.1v-29.7c0-1.7,1.4-3.1,3.1-3.1h63.7c1.7,0,3.1,1.4,3.1,3.1v29.7
			C103,164.6,101.6,166,99.9,166z"/>
		<path class="st10" d="M90.2,151H44.8c-2.1,0-3.8-1.7-3.8-3.8v-45.3c0-2.1,1.7-3.8,3.8-3.8h45.3c2.1,0,3.8,1.7,3.8,3.8v45.3
			C94,149.3,92.3,151,90.2,151z"/>
		<linearGradient id="SVGID_6_" gradientUnits="userSpaceOnUse" x1="45" y1="106" x2="91" y2="106">
			<stop  offset="0" style="stop-color:#CCCCCC"/>
			<stop  offset="1" style="stop-color:#E6E6E6"/>
		</linearGradient>
		<path class="st14" d="M88.4,109H47.6c-1.4,0-2.6-1.2-2.6-2.6v-0.8c0-1.4,1.2-2.6,2.6-2.6h40.8c1.4,0,2.6,1.2,2.6,2.6v0.8
			C91,107.8,89.8,109,88.4,109z"/>
		<linearGradient id="SVGID_7_" gradientUnits="userSpaceOnUse" x1="45" y1="115" x2="91" y2="115">
			<stop  offset="0" style="stop-color:#CCCCCC"/>
			<stop  offset="1" style="stop-color:#E6E6E6"/>
		</linearGradient>
		<path class="st15" d="M88.4,118H47.6c-1.4,0-2.6-1.2-2.6-2.6v-0.8c0-1.4,1.2-2.6,2.6-2.6h40.8c1.4,0,2.6,1.2,2.6,2.6v0.8
			C91,116.8,89.8,118,88.4,118z"/>
		<linearGradient id="SVGID_8_" gradientUnits="userSpaceOnUse" x1="45" y1="124" x2="79" y2="124">
			<stop  offset="0" style="stop-color:#CCCCCC"/>
			<stop  offset="1" style="stop-color:#E6E6E6"/>
		</linearGradient>
		<path class="st16" d="M76.4,127H47.6c-1.4,0-2.6-1.2-2.6-2.6v-0.8c0-1.4,1.2-2.6,2.6-2.6h28.8c1.4,0,2.6,1.2,2.6,2.6v0.8
			C79,125.8,77.8,127,76.4,127z"/>
		<linearGradient id="SVGID_9_" gradientUnits="userSpaceOnUse" x1="45" y1="133" x2="79" y2="133">
			<stop  offset="0" style="stop-color:#CCCCCC"/>
			<stop  offset="1" style="stop-color:#E6E6E6"/>
		</linearGradient>
		<path class="st17" d="M76.4,136H47.6c-1.4,0-2.6-1.2-2.6-2.6v-0.8c0-1.4,1.2-2.6,2.6-2.6h28.8c1.4,0,2.6,1.2,2.6,2.6v0.8
			C79,134.8,77.8,136,76.4,136z"/>
		<linearGradient id="SVGID_10_" gradientUnits="userSpaceOnUse" x1="45" y1="142" x2="87" y2="142">
			<stop  offset="0" style="stop-color:#CCCCCC"/>
			<stop  offset="1" style="stop-color:#E6E6E6"/>
		</linearGradient>
		<path class="st18" d="M84.4,145H47.6c-1.4,0-2.6-1.2-2.6-2.6v-0.8c0-1.4,1.2-2.6,2.6-2.6h36.8c1.4,0,2.6,1.2,2.6,2.6v0.8
			C87,143.8,85.8,145,84.4,145z"/>
		<linearGradient id="SVGID_11_" gradientUnits="userSpaceOnUse" x1="84" y1="124" x2="90" y2="124">
			<stop  offset="0" style="stop-color:#CCCCCC"/>
			<stop  offset="1" style="stop-color:#E6E6E6"/>
		</linearGradient>
		<path class="st19" d="M87.4,127h-0.8c-1.4,0-2.6-1.2-2.6-2.6v-0.8c0-1.4,1.2-2.6,2.6-2.6h0.8c1.4,0,2.6,1.2,2.6,2.6v0.8
			C90,125.8,88.8,127,87.4,127z"/>
		<linearGradient id="SVGID_12_" gradientUnits="userSpaceOnUse" x1="33" y1="151.75" x2="103" y2="151.75">
			<stop  offset="0" style="stop-color:#FBB03B"/>
			<stop  offset="1" style="stop-color:#FCEE21"/>
		</linearGradient>
		<path class="st20" d="M103,136v30.4c0,1.4-1.2,2.6-2.6,2.6H35.6c-1.4,0-2.6-1.2-2.6-2.6v-30.8c0-0.4,0.1-0.8,0.3-1.1l36.1,13.8
			L70,148L103,136z"/>
	</g>
	<path class="st21" d="M110.2,96c-2.3,0.2-3.8,6-4.7,9.3c-1.1,4.2-2.4,9.6,0,13.6c0.8,1.4,1.8,2.2,1.8,2.2s0.1,0.1,0.2,0.2
		c1.3,0.9,3.2,1.2,3.8,1.2c2.2-0.1,4.8-6.3,4.7-12.9C115.9,103.1,112.8,95.8,110.2,96z"/>
	<linearGradient id="SVGID_13_" gradientUnits="userSpaceOnUse" x1="101.05" y1="115.8625" x2="147" y2="115.8625">
		<stop  offset="0" style="stop-color:#39B54A"/>
		<stop  offset="1" style="stop-color:#8CC63F"/>
	</linearGradient>
	<path class="st22" d="M147,108.1v13.3c0,1.4-1.2,2.6-2.6,2.6h-40.8c-1.3,0-2.3-0.9-2.6-2.1c1.9-0.3,4.5,0.1,7.7,0
		c5-0.2,8.6-1.6,11.9-2.9c8.1-3.2,7.8-6.6,15.8-9.5C137.5,109.1,143.7,106.9,147,108.1z"/>
	<path class="st21" d="M123.6,108c-1,0.1-1.6,2.4-1.9,3.7c-0.4,1.7-1,3.8,0,5.4c0.5,0.8,1.5,1.7,2.4,1.4c1.4-0.4,1.9-3.3,1.9-5.2
		C125.9,110.8,124.7,107.9,123.6,108z"/>
	<path class="st23" d="M117.5,92.5c1,0.7,2,1.3,3,2l0,0c0.3-0.3,0.6-0.7,1-1c1-0.9,2.1-1.6,3-2"/>
	<path class="st23" d="M125.5,94.5c0.6,0.3,1.3,0.7,1.9,1l0,0c0.2-0.2,0.4-0.3,0.6-0.5c0.7-0.5,1.4-0.8,1.9-1"/>
	<linearGradient id="SVGID_14_" gradientUnits="userSpaceOnUse" x1="132.7361" y1="88.2505" x2="142.2639" y2="82.7495">
		<stop  offset="5.291006e-03" style="stop-color:#FBB03B"/>
		<stop  offset="1" style="stop-color:#FCEE21"/>
	</linearGradient>
	<circle class="st24" cx="137.5" cy="85.5" r="5.5"/>
	<g>
		<linearGradient id="SVGID_15_" gradientUnits="userSpaceOnUse" x1="284" y1="212" x2="366" y2="212">
			<stop  offset="0" style="stop-color:#CCCCCC"/>
			<stop  offset="1" style="stop-color:#E6E6E6"/>
		</linearGradient>
		<path class="st25" d="M363.4,215h-76.8c-1.4,0-2.6-1.2-2.6-2.6v-0.8c0-1.4,1.2-2.6,2.6-2.6h76.8c1.4,0,2.6,1.2,2.6,2.6v0.8
			C366,213.8,364.8,215,363.4,215z"/>
		<linearGradient id="SVGID_16_" gradientUnits="userSpaceOnUse" x1="180" y1="212" x2="280" y2="212">
			<stop  offset="0" style="stop-color:#CCCCCC"/>
			<stop  offset="1" style="stop-color:#E6E6E6"/>
		</linearGradient>
		<path class="st26" d="M277.4,215h-94.8c-1.4,0-2.6-1.2-2.6-2.6v-0.8c0-1.4,1.2-2.6,2.6-2.6h94.8c1.4,0,2.6,1.2,2.6,2.6v0.8
			C280,213.8,278.8,215,277.4,215z"/>
		<path class="st27" d="M197,197c56.3,0,112.7,0,169,0c-20-33.4-56.7-52.6-94-49C223.8,152.6,199.4,192.8,197,197z"/>
		<polyline class="st27" points="214.8,197 214.8,175 233.9,197 234,160 259.5,197 259.5,150.1 		"/>
		<polyline class="st27" points="347.5,196 347.5,174 328.4,196 328.3,159 302.8,196 302.8,149.1 		"/>
		<line class="st27" x1="180" y1="212" x2="180" y2="212"/>
		<line class="st27" x1="179" y1="205" x2="385" y2="205"/>
		<circle class="st27" cx="389.5" cy="204.5" r="4.5"/>
		<circle class="st27" cx="175.5" cy="204.5" r="4.5"/>
	</g>
</g>
</svg>
